PathFileType	4	(X/Y/Z)	s03c0202.trc
DataRate	CameraRate	NumFrames	NumMarkers	Units	OrigDataRate	OrigDataStartFrame	OrigNumFrames
200	200	6	52	mm	200	1000	2000
Frame#	Time	racr			lacr			c7			jug			rlel			rdr			llel			ldr			s2			lic			ric			lasi			rasi			rpsi			lpsi			rgt			lgt			rth1			rth2			rth3			rth4			rlfc			rmfc			rsh1			rsh2			rsh3			rsh4			rlmal			rmmal			rcal			rtoe			rmt5			rmt1			lth1			lth2			lth4			lth3			llfc			lmfc			lsh1			lsh2			lsh3			lsh4			llmal			lmmal			lcal			ltoe			lmt1			lmt5			SBIKE			LBIKE			RBIKE			
		X1	Y1	Z1	X2	Y2	Z2	X3	Y3	Z3	X4	Y4	Z4	X5	Y5	Z5	X6	Y6	Z6	X7	Y7	Z7	X8	Y8	Z8	X9	Y9	Z9	X10	Y10	Z10	X11	Y11	Z11	X12	Y12	Z12	X13	Y13	Z13	X14	Y14	Z14	X15	Y15	Z15	X16	Y16	Z16	X17	Y17	Z17	X18	Y18	Z18	X19	Y19	Z19	X20	Y20	Z20	X21	Y21	Z21	X22	Y22	Z22	X23	Y23	Z23	X24	Y24	Z24	X25	Y25	Z25	X26	Y26	Z26	X27	Y27	Z27	X28	Y28	Z28	X29	Y29	Z29	X30	Y30	Z30	X31	Y31	Z31	X32	Y32	Z32	X33	Y33	Z33	X34	Y34	Z34	X35	Y35	Z35	X36	Y36	Z36	X37	Y37	Z37	X38	Y38	Z38	X39	Y39	Z39	X40	Y40	Z40	X41	Y41	Z41	X42	Y42	Z42	X43	Y43	Z43	X44	Y44	Z44	X45	Y45	Z45	X46	Y46	Z46	X47	Y47	Z47	X48	Y48	Z48	X49	Y49	Z49	X50	Y50	Z50	X51	Y51	Z51	X52	Y52	Z52	
1000	5.0000	510.890654	1397.413826	-128.095248	479.283874	1404.634612	-434.472238	428.030816	1484.758925	-277.888288	433.226901	1307.274388	-273.302430	550.782742	1200.852171	65.333850	720.282091	994.741019	-38.744335	544.246128	1194.648571	-597.171467	722.093869	982.761071	-472.094217	-94.833498	1206.481969	-216.883637	64.618565	1237.210207	-415.341896	82.415952	1248.397888	-47.977857	93.006536	1174.532267	-369.714795	108.748367	1176.962332	-92.185490	-66.782344	1258.804074	-176.014283	-65.823895	1256.922582	-259.286112	22.472384	1123.498892	-34.040709	27.101836	1156.257978	-430.336202	94.419107	973.198576	-14.788968	161.322650	914.724433	-13.540633	192.694743	835.143860	-25.097979	191.497648	935.449339	-20.308219	250.557247	724.007048	-55.879439	261.418723	709.191625	-171.563925	228.847109	558.087219	-28.463931	244.917484	470.862562	-40.100500	214.386935	387.846503	-43.924876	274.876800	470.575514	-64.529645	192.849340	257.136413	-66.085145	218.465869	271.047110	-145.026685	131.213358	221.825800	-99.111035	439.427793	183.533052	-117.309971	322.086783	174.121170	-40.648281	344.680948	197.488664	-153.729211	148.105356	1082.328904	-461.216255	232.648050	1069.403530	-473.327901	248.992714	1100.296688	-461.232094	301.173065	1012.238726	-482.218846	428.284275	955.380892	-475.519204	438.096005	942.378036	-342.294547	312.999304	828.417457	-478.099118	276.231503	756.143082	-451.165913	201.533255	706.533993	-438.576530	302.722414	738.373951	-429.187490	114.067461	624.582537	-408.892663	152.469268	626.243008	-323.603004	37.582779	617.070143	-359.163319	293.441857	444.496492	-357.447563	212.115234	492.020268	-314.884969	182.045387	490.137122	-430.229213	-216.963145	944.531624	-233.562012	-11.783349	81.007873	-435.447439	-11.532560	80.384864	-35.060042	
1001	5.0050	511.566898	1398.275979	-130.999318	477.124141	1404.043766	-436.978826	427.302414	1484.808047	-280.297870	432.484327	1307.347293	-275.128030	552.810804	1202.169190	62.969401	721.429098	994.725656	-40.424836	541.611377	1193.368897	-598.640242	722.130217	982.843783	-472.990384	-94.947391	1206.344544	-213.513951	63.277682	1237.275790	-413.904801	83.841313	1248.744450	-46.976152	92.236980	1175.123725	-368.416384	109.922605	1177.588328	-91.233370	-66.376858	1258.729818	-173.309477	-66.236302	1256.733750	-256.298411	23.221610	1123.528994	-32.338850	27.001873	1157.049957	-428.801858	92.987382	972.858547	-12.096517	159.257825	913.468169	-11.491913	189.703671	833.458047	-23.072931	189.745569	933.924741	-18.539019	246.341431	721.634960	-54.259429	257.278748	707.022713	-170.169758	223.386501	556.116539	-27.399079	238.828291	468.518124	-39.244194	207.843935	385.844140	-43.214661	268.836275	468.269872	-63.581393	185.377166	255.425627	-65.716254	211.947125	269.323236	-144.223690	123.261853	221.476134	-98.987414	430.562871	177.234481	-117.044850	313.048839	169.812796	-40.563221	336.285855	192.911155	-153.486784	149.390844	1084.404948	-459.249265	233.987736	1072.092427	-470.713861	250.034278	1103.464390	-459.077624	303.262726	1015.952827	-479.562026	430.783262	961.421719	-473.060335	440.265540	948.120180	-339.771873	316.541451	833.509830	-475.946357	280.558614	760.675248	-449.344748	206.479727	710.263928	-437.176138	307.185741	743.182145	-427.483344	119.670976	627.211741	-408.142822	158.128242	628.544696	-322.508140	42.610663	617.995495	-358.050163	303.225382	452.434225	-358.005795	220.711206	497.712998	-314.986847	190.309618	495.339620	-430.270448	-216.928987	944.564566	-233.616162	-11.807886	80.965097	-435.505437	-11.861797	80.825586	-35.021952	
1002	5.0100	512.294137	1398.949327	-133.949910	474.959314	1403.264742	-439.443056	426.601628	1484.825825	-282.979546	431.659640	1307.259931	-277.141903	554.978989	1203.523414	60.652980	722.603048	994.765079	-42.108524	539.208152	1191.952341	-600.166652	722.122747	982.954028	-473.790899	-95.235616	1206.370615	-210.983916	62.878604	1237.969931	-414.553857	84.955141	1249.271252	-45.965317	91.369817	1175.678228	-367.130498	110.814415	1178.171813	-90.250967	-66.152616	1258.880127	-170.973521	-66.655558	1256.792227	-253.414963	23.673029	1123.769640	-30.692500	26.669534	1158.070026	-427.137718	91.849507	972.586826	-10.369218	157.540850	912.415029	-9.512469	187.082220	832.277932	-21.018749	188.195856	932.714927	-16.748931	242.610672	719.786647	-52.574359	253.685162	705.450607	-168.740317	218.092128	554.648793	-26.221481	232.814428	467.005279	-38.268476	201.087756	384.536631	-42.526269	263.583974	466.505313	-62.218007	177.580643	254.396830	-65.257167	204.639304	268.100805	-143.531520	115.130263	221.833215	-98.832878	421.370025	171.338186	-116.759274	303.664500	166.033767	-40.449941	327.475226	188.821632	-153.352990	150.468613	1086.473783	-456.851704	235.337143	1074.976428	-468.526215	251.126347	1106.842873	-457.411250	305.316739	1019.551776	-476.634656	432.923003	967.346730	-470.485050	442.087330	953.790505	-337.151561	319.965092	838.268859	-473.841041	284.816800	764.775987	-447.614310	211.264630	713.515178	-435.963751	311.444933	747.634634	-425.596790	125.026397	629.284624	-407.339253	163.629293	630.590649	-321.576993	47.762348	618.052341	-356.726636	313.044557	459.848486	-358.340228	229.579685	502.862921	-315.027208	198.679655	499.979638	-430.097252	-216.940712	944.581240	-233.416057	-11.804639	80.983450	-435.499415	-11.859824	80.827707	-35.022955	
1003	5.0150	512.980107	1399.323409	-136.962367	472.698475	1402.378707	-441.573044	425.987986	1484.640343	-285.162578	431.060517	1307.135164	-279.525443	557.114189	1204.845605	58.398416	723.720674	994.801055	-43.813654	536.730376	1190.482796	-601.608179	722.089724	983.006139	-474.534927	-95.498344	1206.647553	-210.212824	61.663941	1238.585210	-413.477309	85.833284	1249.981673	-44.968104	90.412045	1176.195010	-365.862262	111.465716	1178.855508	-89.218254	-65.996546	1259.122898	-168.940483	-67.207797	1257.081452	-250.923644	23.794413	1124.291899	-29.133050	26.365249	1159.188325	-425.651428	90.867715	972.575937	-8.732926	156.074393	911.910904	-7.575572	184.935287	831.437608	-18.963570	186.861634	931.923676	-15.004285	239.205498	718.457227	-50.901908	250.847965	704.305507	-167.249990	213.084355	553.746660	-25.061051	226.774278	466.030202	-37.285982	194.211736	383.911721	-41.672034	257.733163	465.142188	-61.065315	169.582049	253.892651	-64.821130	197.118697	267.458709	-142.807368	106.721162	222.653515	-98.806558	411.842379	166.201045	-116.501723	293.948908	162.984695	-40.307456	318.391612	185.475593	-153.223571	151.525213	1088.538072	-455.097089	236.546445	1077.850429	-466.302582	251.953695	1109.871756	-455.329399	307.142534	1023.024476	-473.728530	434.662535	972.971993	-467.867310	443.723618	959.127415	-334.467976	323.069337	842.730476	-472.398528	288.784556	768.549185	-446.042888	215.781249	716.455449	-434.691530	315.450754	751.719619	-423.530651	130.340501	630.881234	-406.140754	168.948003	632.864802	-320.172630	53.128514	617.151988	-355.159148	323.052390	467.095217	-359.134688	238.066488	506.653055	-315.799116	207.028155	503.714472	-429.562099	-216.935414	944.601528	-233.257226	-11.816362	81.037590	-435.502356	-11.864995	80.835123	-35.007876	
1004	5.0200	513.818576	1399.625273	-139.968019	470.293430	1401.459738	-443.233610	425.442461	1484.319962	-287.260969	430.127094	1306.923946	-281.567497	559.284405	1206.148849	56.364617	724.884409	994.791388	-45.439644	534.189521	1188.957955	-603.014892	721.963872	982.983796	-475.372772	-95.925479	1207.300814	-207.390292	60.250598	1239.315970	-412.124274	86.457470	1250.703160	-43.976867	89.370652	1176.673544	-364.616803	111.864344	1179.507505	-88.248832	-65.862778	1259.623455	-167.221854	-67.780384	1257.582538	-248.819536	23.628420	1124.960893	-27.624424	26.041696	1160.492437	-424.351945	90.173134	972.750157	-7.201694	154.971830	911.759209	-5.766363	183.274904	831.082289	-16.991800	185.895921	931.536853	-13.267087	237.077305	717.587759	-49.075376	248.378785	703.592415	-165.871735	208.343878	553.338985	-23.873058	220.892903	465.571984	-36.344730	187.282438	383.843498	-40.862989	251.914137	464.310866	-59.894914	161.283581	254.043025	-64.361664	189.341318	267.473724	-142.095409	97.604938	224.111121	-98.313219	401.958106	161.845916	-116.129997	284.001748	160.697593	-40.241699	309.098626	182.710250	-153.023959	152.367281	1090.714752	-453.347431	237.512939	1080.663209	-464.174379	252.578649	1112.949083	-453.267386	308.609009	1026.439089	-471.251410	436.046248	978.254799	-465.187511	445.139340	964.011093	-331.756394	326.161323	846.327526	-470.076312	292.455163	771.923621	-444.206558	220.010286	718.947478	-433.220870	319.203131	755.510581	-421.587729	135.668138	631.947689	-404.778849	174.825460	635.010345	-318.018567	59.122007	615.602755	-353.939002	333.075042	473.769957	-359.855867	247.236717	510.599782	-315.745756	215.737839	506.742156	-429.155728	-216.872328	944.657637	-232.978639	-11.843128	81.071704	-435.465245	-11.868191	80.854041	-34.975961	
1005	5.0250	514.671182	1399.497055	-142.995076	467.985269	1400.591910	-445.326495	424.948043	1483.831310	-289.263876	429.006649	1306.511299	-283.766638	561.501940	1207.385066	54.450267	725.975488	994.776461	-47.066969	531.668362	1187.463701	-604.273754	721.764627	982.984608	-476.103731	-96.609117	1208.172748	-204.975721	58.846715	1240.342117	-410.774523	86.619681	1251.619935	-42.920115	88.252642	1177.113429	-363.399217	112.055922	1180.289787	-87.050056	-65.680902	1260.241159	-165.836970	-68.365248	1258.452042	-247.128330	23.225572	1125.645720	-26.293501	25.659412	1162.066604	-423.219891	89.605774	973.327931	-5.723718	154.249260	911.896986	-4.114892	182.230404	831.121085	-15.156732	185.281474	931.574112	-11.666520	235.121774	717.162248	-47.328173	246.910707	703.267304	-164.401124	203.976290	553.374217	-22.628083	215.042236	465.428106	-35.833778	180.319947	384.375533	-39.988143	246.284863	463.888695	-58.564434	152.914348	254.758817	-64.119708	181.453230	268.017107	-141.501691	89.339787	225.888116	-98.953638	391.942655	158.091132	-115.883010	273.898592	159.080866	-40.211038	299.630333	180.491089	-152.941816	152.908761	1092.939513	-451.634384	238.151592	1083.480978	-462.134704	252.929696	1115.883327	-451.190326	309.584594	1029.742480	-468.949044	436.953219	983.078843	-463.045933	446.328106	968.616016	-329.089045	328.862517	849.582271	-467.920842	296.034339	774.849373	-442.398298	224.157533	720.864358	-431.562280	322.488827	758.728285	-419.224143	141.288371	632.218876	-403.474500	180.128297	636.123247	-317.364472	64.954944	613.065557	-353.407755	343.172195	479.356295	-359.458315	256.296994	513.753645	-315.513780	225.005697	509.292735	-428.666483	-216.903429	944.659887	-232.841639	-11.847823	81.122295	-435.459833	-11.905034	80.912528	-34.988820	
